<svg version="1.0" xmlns="http://www.w3.org/2000/svg"
 width="630.000000pt" height="420.000000pt" viewBox="40 50 630 300"
 preserveAspectRatio="xMidYMid meet">
<g transform="translate(0.000000,420.000000) scale(0.100000,-0.100000)"
fill="#8875F5" stroke="none">
<path d="M3008 3600 c-110 -19 -222 -69 -306 -138 -38 -32 -79 -88 -70 -97 2
-2 35 21 73 51 183 142 401 159 620 50 108 -54 199 -130 300 -250 l75 -90 0
-355 c0 -319 -5 -412 -26 -503 l-6 -28 71 0 c39 0 71 2 71 3 0 2 -7 48 -15
103 -11 70 -15 180 -15 379 l1 280 31 -38 c31 -38 179 -231 383 -501 61 -80
114 -145 118 -146 4 0 21 15 37 34 16 18 54 52 84 75 l53 41 6 283 c4 205 10
298 21 342 8 33 15 63 16 68 0 4 -34 7 -76 7 l-76 0 7 -32 c21 -93 25 -144 31
-385 5 -175 4 -263 -3 -263 -5 0 -140 170 -299 377 -165 215 -326 415 -374
463 -212 214 -479 312 -732 270z"/>
<path d="M507 3113 c10 -74 11 -728 0 -810 l-8 -63 117 0 c106 0 116 2 110 17
-36 92 -35 783 0 896 5 15 -5 17 -111 17 l-116 0 8 -57z"/>
<path d="M907 3118 c10 -69 10 -757 0 -825 l-8 -53 117 0 c116 0 116 0 110 23
-15 52 -26 201 -24 308 l3 114 224 3 223 2 -6 -187 c-3 -104 -8 -205 -12 -225
l-6 -38 112 0 112 0 -6 38 c-4 20 -10 187 -13 369 -4 292 0 414 19 504 2 11
-20 14 -112 14 -97 0 -114 -2 -112 -15 15 -67 22 -145 22 -263 l0 -137 -222 2
-223 3 -3 100 c-3 94 11 264 24 299 5 14 -8 16 -110 16 l-117 0 8 -52z"/>
<path d="M1934 3138 c33 -160 33 -742 0 -874 l-6 -24 116 0 c64 0 116 3 116 8
0 4 -7 43 -15 87 -8 44 -14 138 -15 209 l0 129 138 -6 c90 -3 152 -10 181 -21
24 -9 45 -16 47 -16 2 0 4 34 4 76 0 69 -2 75 -17 69 -57 -25 -131 -37 -233
-38 l-115 -2 0 185 0 185 140 0 c159 -1 224 -16 308 -72 28 -19 52 -31 55 -28
3 2 1 40 -4 82 l-9 78 -349 3 -349 2 7 -32z"/>
<path d="M2961 3143 c14 -37 11 -44 -103 -320 -79 -190 -105 -243 -119 -243
-10 0 -53 -11 -97 -25 -183 -58 -328 -202 -390 -389 -32 -96 -41 -257 -19
-343 33 -125 104 -234 198 -299 l42 -28 -6 -186 c-3 -102 -9 -197 -13 -212
l-6 -28 117 0 118 0 -7 33 c-9 43 -25 220 -26 280 l0 47 63 0 c128 0 220 48
263 137 20 41 25 63 21 94 -3 22 -8 43 -11 46 -3 3 -24 -11 -48 -30 -24 -19
-63 -43 -87 -53 -52 -21 -174 -25 -192 -7 -9 9 -9 46 0 165 6 84 14 168 17
186 l6 32 -116 0 c-64 0 -116 -2 -116 -4 0 -2 4 -27 10 -55 12 -63 16 -239 5
-249 -12 -12 -83 76 -116 143 -58 118 -51 286 18 418 40 76 128 164 201 201
60 31 152 58 152 45 0 -18 -89 -186 -114 -216 -14 -17 -26 -34 -26 -37 0 -3
38 -6 85 -6 l85 0 0 44 c0 45 31 159 56 209 17 32 40 34 152 11 92 -19 188
-64 249 -118 69 -61 122 -144 253 -401 68 -132 149 -287 180 -345 103 -191
110 -211 110 -314 0 -118 -19 -158 -151 -332 -54 -72 -99 -137 -99 -144 0 -11
3 -10 13 2 6 8 27 21 44 28 43 16 137 117 206 221 60 92 156 262 262 464 153
294 248 444 346 546 172 178 376 231 494 128 35 -31 62 -97 51 -125 -15 -38
67 -1 112 50 73 83 69 199 -9 273 -92 87 -293 85 -449 -4 -188 -108 -313 -269
-540 -697 -63 -119 -117 -216 -120 -216 -3 0 -12 17 -19 38 -7 20 -59 125
-116 232 -221 419 -308 609 -538 1177 l-82 203 -102 0 -103 0 11 -27z m128
-296 c33 -83 83 -208 111 -276 28 -68 49 -126 46 -128 -2 -2 -24 11 -48 29
-77 59 -238 117 -325 118 -13 0 -23 3 -23 8 0 4 30 79 66 167 36 88 73 179 82
202 9 23 19 40 23 37 4 -2 35 -73 68 -157z"/>
<path d="M4695 3148 c4 -12 10 -148 12 -302 l5 -278 30 6 c17 3 57 6 89 6 l59
0 2 263 3 262 115 -1 c134 -2 201 -22 270 -81 141 -121 161 -431 40 -597 -35
-46 -110 -102 -151 -111 -25 -6 -29 -11 -29 -42 l0 -35 43 7 c166 27 313 129
372 258 36 78 49 184 36 276 -27 184 -144 308 -346 366 -47 14 -112 19 -309
22 l-249 5 8 -24z"/>
<path d="M5747 3108 c10 -81 10 -712 0 -800 l-8 -68 116 0 c106 0 116 2 111
18 -35 111 -36 691 -3 897 1 6 -43 11 -111 13 l-113 3 8 -63z"/>
<path d="M868 2009 c-31 -4 -83 -19 -116 -32 -122 -50 -199 -121 -253 -233
-28 -59 -33 -82 -37 -167 -8 -165 33 -284 131 -381 193 -191 516 -194 709 -7
32 31 58 61 58 67 0 5 -8 14 -19 21 -16 10 -25 6 -65 -32 -142 -136 -356 -138
-500 -5 -123 114 -160 352 -81 527 101 226 401 254 462 43 18 -63 34 -86 69
-94 35 -9 90 20 104 55 42 99 -90 212 -281 239 -73 11 -102 11 -181 -1z"/>
<path d="M4660 2009 c-119 -21 -253 -106 -320 -204 -92 -135 -103 -335 -26
-490 46 -94 112 -157 211 -206 221 -107 481 -55 628 126 176 218 117 574 -117
710 -100 58 -258 85 -376 64z m194 -73 c186 -78 265 -419 151 -653 -33 -67
-110 -136 -169 -153 -216 -60 -391 153 -373 455 14 228 125 365 295 365 34 0
77 -6 96 -14z"/>
<path d="M1747 1958 c4 -38 -11 -82 -127 -362 -143 -347 -178 -422 -221 -477
-16 -20 -29 -40 -29 -43 0 -3 38 -6 85 -6 l85 0 0 54 c0 52 39 184 62 214 8 9
61 12 203 12 l193 0 32 -77 c163 -395 317 -581 559 -679 208 -84 481 -68 676
40 73 41 145 106 145 132 0 11 -11 8 -42 -14 -130 -89 -265 -132 -413 -132
-296 0 -472 143 -661 535 -69 143 -195 443 -302 715 l-49 125 -100 3 -101 3 5
-43z m147 -326 c42 -105 76 -197 76 -202 0 -6 -62 -10 -165 -10 -105 0 -165 4
-165 10 0 6 31 88 69 183 38 94 75 185 81 201 6 16 14 25 19 20 4 -5 42 -96
85 -202z"/>
<path d="M3094 1968 c4 -18 10 -111 13 -205 l5 -173 -24 0 c-19 0 -27 -7 -35
-35 l-11 -35 34 0 34 0 0 -142 c0 -133 -11 -253 -26 -292 -5 -14 7 -16 116
-16 l122 0 -6 26 c-36 141 -36 739 -1 877 l7 27 -117 0 -117 0 6 -32z"/>
</g>
</svg>
